<svg width="120" height="49" viewBox="0 0 120 49" fill="none" xmlns="http://www.w3.org/2000/svg">
<path d="M39.8075 21.0688C39.8075 19.0216 37.8224 16.8499 34.3808 16.8499C30.5144 16.8499 26.2736 19.6804 25.6172 25.3365C24.9548 31.0548 28.5149 33.5815 32.092 33.5815C35.6679 33.5815 37.5504 32.1882 39.4622 30.3204C37.8115 28.2414 35.6825 29.2089 35.2799 29.4114C34.8346 29.6346 34.2502 29.9433 33.0631 29.9433C31.6772 29.9433 30.2717 29.3163 30.2717 26.7432C39.1316 25.894 39.8075 23.1172 39.8075 21.0688ZM35.4166 21.4116C35.3592 22.0424 35.1005 23.1343 30.617 23.7346C31.5625 20.377 33.3657 20.1282 34.199 20.1282C34.9798 20.1282 35.4776 20.7333 35.4166 21.4116ZM20.4101 21.957C20.4101 21.957 18.5045 27.9327 18.3568 28.4342C18.3056 27.9327 16.9111 17.1989 16.9111 17.1989C13.6658 17.1989 11.9297 19.5048 11.0147 21.9546C11.0147 21.9546 8.69656 27.9474 8.50868 28.4488C8.49773 27.9791 8.15243 22.0168 8.15243 22.0168C7.95601 19.0203 5.22071 17.2062 3.00391 17.2062L5.66968 33.468C9.07478 33.457 10.8975 31.1548 11.8589 28.7099C11.8589 28.7099 13.8976 23.4222 13.9818 23.1819C14.0025 23.4113 15.4483 33.468 15.4483 33.468C18.8558 33.468 20.6944 31.3122 21.6839 28.9551L26.4652 17.2062C23.0979 17.2062 21.3251 19.506 20.4101 21.957ZM52.3226 16.8279C50.2278 16.8279 48.6137 17.9663 47.2546 19.6487L47.257 19.6365L48.4649 9.86523C45.6758 9.86523 43.3968 12.2931 42.9637 15.8946L40.8421 33.3411C42.4513 33.3411 44.1557 32.8739 45.0755 31.6917C45.8991 32.7494 47.1228 33.5925 48.9345 33.5925C53.6378 33.5925 56.8709 28.1255 56.8709 22.9928C56.8709 18.3091 54.5918 16.8279 52.3226 16.8279ZM51.8907 25.2096C51.4027 28.0791 49.8081 30.0141 48.2635 30.0141C46.7068 30.0141 46.0492 29.326 46.0492 29.326C46.3395 26.8176 46.5323 25.2792 47.0996 23.9542C47.6657 22.6293 49.0041 20.5149 50.4047 20.5149C51.7662 20.5149 52.3787 22.3413 51.8907 25.2096ZM68.6613 17.2074H65.3684L65.3843 17.0354C65.6087 14.8857 66.1236 13.7571 67.7902 13.5839C68.9285 13.4668 69.4433 12.8751 69.5629 12.2358C69.6569 11.7343 69.9752 9.96161 69.9752 9.96161C63.37 9.92381 61.2996 12.775 60.7713 17.1086L60.7591 17.2062L60.6944 17.2086C59.622 17.2086 58.4447 18.4226 58.2385 19.9647L58.1666 20.532H60.3626L58.5191 35.7934L57.9604 38.536L58.1873 38.5434C61.2703 38.4262 63.2541 35.9947 63.6921 32.4542L65.1317 20.532H66.1639C67.1741 20.532 68.3612 19.5194 68.5808 17.8272L68.6613 17.2074ZM85.7492 16.9244C81.9549 16.9244 78.3789 19.717 77.2794 24.1104C76.1814 28.5025 77.8509 33.6888 83.4272 33.6888C89.0057 33.6888 92.2104 28.2828 92.2104 23.7944C92.2104 19.3034 89.1752 16.9244 85.7492 16.9244ZM87.2874 25.0791C87.0909 27.0714 86.2127 30.0812 83.8119 30.0812C81.4007 30.0812 81.7434 26.5492 81.9767 24.8729C82.2272 23.0757 83.2367 20.532 85.3854 20.532C87.3264 20.532 87.5094 22.8293 87.2874 25.0791ZM110.948 21.957C110.948 21.957 109.042 27.9327 108.896 28.4342C108.843 27.9327 107.449 17.1989 107.449 17.1989C104.204 17.1989 102.468 19.5048 101.552 21.9546C101.552 21.9546 99.2357 27.9474 99.0474 28.4488C99.0362 27.9791 98.6911 22.0168 98.6911 22.0168C98.4946 19.0203 95.7579 17.2062 93.5424 17.2062L96.2072 33.468C99.6122 33.457 101.436 31.1548 102.398 28.7099C102.398 28.7099 104.436 23.4222 104.52 23.1819C104.541 23.4113 105.986 33.468 105.986 33.468C109.394 33.468 111.232 31.3122 112.221 28.9551L117.004 17.2062C113.636 17.2062 111.863 19.506 110.948 21.957ZM71.7602 9.96161L68.9956 32.259L68.9882 32.2553L68.427 35.0126L68.6528 35.0199C71.6296 34.9833 73.7415 32.3712 74.1392 29.0771L75.7359 16.2789C76.2204 12.381 73.8965 9.96161 71.7602 9.96161Z" fill="white"/>
</svg>
