<svg width="103" height="111" viewBox="0 0 103 111" fill="none" xmlns="http://www.w3.org/2000/svg">
<g clip-path="url(#clip0_27_20686)">
<path fill-rule="evenodd" clip-rule="evenodd" d="M58.4159 32.7504C58.4665 32.9553 58.5049 33.1254 58.6958 33.1628C58.7574 33.1751 58.8294 33.0814 58.8161 33.0016C58.7832 32.8036 58.6261 32.773 58.4159 32.7504ZM65.617 78.2894C65.4833 78.4334 65.6071 78.5953 65.4393 78.6616C65.3944 78.6793 65.7631 78.8983 65.7936 78.8189C65.8702 78.6208 65.6422 78.5198 65.617 78.2894ZM66.5221 66.5305C66.2676 66.262 66.3018 65.8231 65.9053 65.5443C66.0626 65.9669 66.2486 66.2759 66.5221 66.5305ZM64.5559 61.6649C64.4108 61.3653 64.276 61.0432 63.826 60.8792C64.0194 61.2698 64.2643 61.4824 64.5559 61.6649ZM67.3667 67.3016C67.1894 66.8586 67.0525 66.3968 66.6133 66.0895C66.833 66.5385 66.9956 66.9861 67.3667 67.3016ZM68.9033 52.7619C69.1455 53.3345 69.2411 53.9827 69.76 54.4117C69.4159 53.892 69.2582 53.2761 68.9033 52.7619ZM58.8182 31.9179L58.7573 32.0031C59.3569 32.5101 59.9567 33.0167 60.5565 33.5233C60.5762 33.4997 60.5958 33.4761 60.6156 33.4528C60.0981 32.8449 59.4435 32.3983 58.8182 31.9179ZM77.59 84.282C77.9997 83.6105 77.9483 83.3622 77.2793 83.1998C77.6832 83.5251 77.2027 83.987 77.59 84.282ZM70.4571 56.316C70.6326 57.1556 71.2045 57.7693 71.6588 58.4519C71.4189 57.6508 70.919 56.9968 70.4571 56.316ZM70.07 87.7352C69.0521 86.976 68.0568 86.1883 67.1035 85.3481C67.9591 86.3078 68.9476 87.1041 70.07 87.7352ZM58.248 62.4768C58.7978 63.3543 59.4148 64.183 60.0718 64.982C59.6332 64.0229 59.1182 63.1202 58.248 62.4768ZM75.7638 87.0239C76.0076 87.0049 76.1187 86.8973 76.2315 86.7997C76.832 86.2808 77.1446 85.5798 77.4463 84.872C77.5861 84.5438 77.5748 84.5068 77.2551 84.2265C77.3925 85.1465 77.0655 85.7216 76.4654 85.6073C76.4387 85.8066 76.464 86.1798 76.3154 86.1563C75.9281 86.0948 76.0622 86.3759 76.018 86.5096C75.9642 86.6736 75.9606 86.8537 75.7638 87.0239ZM52.0926 29.7651C54.2524 30.7084 56.3798 31.7263 58.5967 32.5346C56.7129 30.9503 54.5056 30.1183 52.0926 29.7651ZM74.9374 59.8053C74.8887 59.2349 74.7224 58.7627 74.5603 58.2967C73.2399 54.5023 71.3352 50.9728 69.62 47.3571C69.6681 47.6539 74.7078 59.3849 74.9374 59.8053ZM59.4426 67.9161C59.5093 68.2371 59.552 68.5639 59.8535 68.7806C59.9452 68.8466 59.9348 68.9908 59.921 69.1024C59.896 69.3056 60.0253 69.4817 60.151 69.5324C60.3634 69.6179 60.3699 69.7856 60.4321 69.9385C60.4741 70.0415 60.47 70.1564 60.5379 70.2566C61.0245 70.9729 61.2876 71.8048 61.7179 72.5502C61.8941 72.8557 61.9169 73.2377 62.2249 73.4833C62.3236 73.562 62.5387 73.5816 62.5105 73.7359C62.483 73.8876 62.2465 73.6962 62.157 73.8815C62.5758 74.0052 62.9153 74.2576 63.0619 74.6631C63.1839 75.0012 63.5933 75.3026 63.224 75.7417C63.4419 75.4815 63.5871 75.4873 63.751 75.7283C63.9428 76.0101 64.0795 76.3243 64.2628 76.6056C64.4088 76.8296 64.6501 77.0138 64.703 77.2782C64.7765 77.6464 65.2844 77.7705 65.1927 78.2228C65.1799 78.2863 65.3082 78.3751 65.4201 78.2581C65.5567 78.1153 65.5121 77.7796 65.3144 77.6699C65.0504 77.5236 65.0897 77.1517 64.8137 77.02C65.057 76.7283 64.744 76.6729 64.6118 76.5383C64.5815 76.5076 64.5298 76.4817 64.56 76.4154C64.6616 76.1924 64.5069 75.9599 64.6503 75.6824C64.4575 75.757 64.3609 75.999 64.2529 75.8659C64.1136 75.6941 64.4368 75.6419 64.4429 75.4435C64.2158 75.4861 64.0973 75.3731 64.0517 75.1552C63.9105 74.4814 63.4217 74.0083 63.0435 73.478C62.8232 73.1689 62.6393 72.8335 62.4786 72.507C62.1937 71.9275 61.8219 71.3988 61.4952 70.8538C61.1088 70.2091 60.687 69.5714 60.2525 68.9514C60.0041 68.5973 59.8559 68.1495 59.4379 67.9254C59.2365 67.4039 59.0243 67.2403 58.6999 67.3674C58.9721 67.5231 59.0901 67.8753 59.4426 67.9161ZM60.0039 31.0388C60.5507 31.3125 60.9725 31.7374 61.3615 32.1927C61.6602 32.542 61.9016 32.9416 62.3385 33.1537C62.4221 33.1945 62.5515 33.2625 62.495 33.4098C62.4577 33.5074 62.5108 33.5753 62.587 33.5627C62.8391 33.5205 62.8705 33.6629 62.8777 33.8571C62.8826 33.9967 62.9306 34.0632 63.03 33.8989C63.111 33.975 63.2004 34.044 63.2722 34.128C64.4406 35.4937 65.583 36.8807 66.5824 38.3779C67.1091 39.1677 67.8148 39.8034 68.4051 40.5403C69.494 41.8987 70.3082 43.4014 71.0249 44.9788C71.4585 45.9328 71.8059 46.9257 72.2587 47.8605C73.1861 49.7762 74.0126 51.7372 74.9393 53.6509C75.5244 54.8601 76.0524 56.0916 76.5766 57.3261C77.0553 58.4536 77.3326 59.6324 77.5535 60.8369C77.908 62.7743 78.3295 64.6996 78.7565 66.6232C79.5006 69.9764 79.9081 73.3707 79.8797 76.8101C79.8621 78.9557 79.6595 81.0829 79.1478 83.1713C78.7893 84.6339 78.2677 86.0324 77.3666 87.2582C76.0264 89.0817 74.1599 89.6836 71.9587 89.0369C70.2745 88.5422 68.8954 87.5413 67.6008 86.4108C65.2507 84.3586 63.6249 81.7939 62.3813 78.9615C61.5308 77.0247 60.786 75.0463 60.0242 73.0743C59.7193 72.2849 59.1948 71.6264 58.7403 70.923C57.9079 69.6347 57.0329 68.3772 56.1453 67.128C55.7824 66.6171 55.3919 66.1239 54.9046 65.7213C54.6425 65.505 54.5146 65.1582 54.1608 65.0226C53.9885 64.9565 54 64.7538 54.0259 64.5665C54.0541 64.3624 54.0383 64.1246 53.7135 64.2391C53.3699 64.3605 53.0755 64.2785 52.8681 63.9373C52.7741 63.7828 52.6888 63.6642 52.4997 63.653C52.4756 63.6516 52.4347 63.6416 52.4311 63.6278C52.3329 63.2561 51.959 63.2622 51.7192 63.0857C51.1556 62.6707 50.5711 62.2854 50.0147 61.8618C49.6425 61.5785 49.2329 61.3487 48.85 61.0834C48.674 60.9615 48.4808 60.805 48.2763 60.718C48.0397 60.6174 47.8245 60.4836 47.5947 60.3758C47.059 60.1251 46.6306 59.7099 46.1001 59.4433C45.458 59.1204 44.7724 58.9248 44.1138 58.653C42.3582 57.929 40.5629 57.291 38.9148 56.3315C37.4674 55.4891 36.4595 54.2463 35.7544 52.7392C35.3947 51.9705 34.8267 51.34 34.3344 50.6584C33.8365 49.9686 33.2315 49.3866 32.6036 48.832C32.2183 48.4917 31.693 48.3688 31.2077 48.1917C29.8043 47.6792 28.3287 47.2974 27.087 46.4474C26.0392 45.73 24.957 45.0501 24.0207 44.167C23.048 43.2495 22.1685 42.2637 21.5201 41.0968C20.4886 39.2405 19.8333 37.2836 19.849 35.1132C19.8563 34.1142 19.9826 33.151 20.2491 32.2089C20.594 30.99 21.1939 29.8833 21.936 28.8535C23.1629 27.1508 24.8613 26.0986 26.7517 25.2904C27.675 24.8954 28.6121 24.5502 29.6015 24.3871C29.9992 24.3216 30.4304 24.3014 30.8056 24.2172C31.8175 23.9907 32.8153 24.0829 33.8127 24.1595C34.8657 24.24 35.9119 24.4122 36.9583 24.574C37.7306 24.6935 38.4663 24.9721 39.252 25.0221C39.5337 25.0402 39.8069 25.1941 40.0828 25.2905C40.4047 25.4025 40.7469 25.3478 41.0781 25.4363C42.2278 25.7434 43.3901 26.0027 44.5411 26.3057C46.5583 26.8368 48.6246 27.1013 50.6735 27.4624C51.5633 27.6191 52.454 27.7708 53.3441 27.927C53.8477 28.0156 54.3391 28.1696 54.829 28.3039C55.1153 28.3822 55.4134 28.5581 55.7022 28.671C56.1137 28.8316 56.4603 29.1645 56.9451 29.1503C57.2008 29.1429 57.4248 29.2504 57.6021 29.4596C57.8158 29.7118 58.1957 29.7247 58.4088 29.9875C58.9403 30.3379 59.4722 30.6881 60.0039 31.0388Z" fill="#595984"/>
</g>
<defs>
<clipPath id="clip0_27_20686">
<rect width="76.5994" height="88.1418" fill="white" transform="translate(0 28.1431) rotate(-20.8909)"/>
</clipPath>
</defs>
</svg>
