<svg width="111" height="72" viewBox="0 0 111 72" fill="none" xmlns="http://www.w3.org/2000/svg">
<path fill-rule="evenodd" clip-rule="evenodd" d="M92.4331 8.58424C92.4025 8.47381 92.3729 8.36287 92.3422 8.25244C90.0745 8.87889 87.8073 9.50482 85.5391 10.1313C85.5758 10.2615 85.612 10.3923 85.6477 10.5236C87.9098 9.87733 90.1714 9.23053 92.4331 8.58424ZM15.3001 61.4048C14.1257 60.7213 12.7044 60.3361 13.0538 58.6369C13.2768 57.5566 13.4645 56.4192 13.9574 55.4543C15.4792 52.4727 16.8904 49.3863 18.8086 46.6668C21.3559 43.0562 24.9726 40.6823 29.5203 40.5041C33.8593 40.3337 38.2167 40.5601 42.5649 40.6706C48.5375 40.8217 54.5352 41.3428 60.0899 38.3007C63.654 36.3486 66.6809 33.9756 68.5935 30.2297C70.7557 25.9936 73.0407 21.7973 75.6013 17.7929C79.1705 12.2114 84.2075 8.57484 90.9418 7.62423C91.6239 7.52805 92.4901 7.24002 92.9687 7.53263C93.7773 8.02778 94.4518 8.85066 94.9538 9.67506C95.1293 9.96258 94.7742 10.9025 94.4079 11.1193C93.6243 11.5839 92.6524 11.7188 91.8014 12.0887C91.1259 12.3818 90.5147 12.8231 89.877 13.2017C89.7592 13.2714 89.6398 13.4317 89.5357 13.4205C87.2639 13.1666 86.2364 15.1538 84.6605 16.1308C81.0188 18.3898 78.8394 21.8961 76.8645 25.5412C74.9993 28.9839 73.2244 32.4754 71.3235 35.8977C70.7817 36.8737 70.0588 37.8218 69.2134 38.5454C66.7595 40.6482 64.2479 42.5153 61.1179 43.8013C55.0484 46.2948 48.9523 45.5875 42.7613 45.2231C38.9274 44.9971 35.047 44.7865 31.237 45.1264C26.401 45.5574 23.0507 48.6067 20.3718 52.4809C19.6667 53.5002 18.5959 54.2666 17.8827 55.2813C17.4102 55.9541 17.3128 56.8787 16.9817 57.6629C16.4649 58.8904 15.893 60.0944 15.3001 61.4048Z" fill="#595984"/>
<path fill-rule="evenodd" clip-rule="evenodd" d="M14.2538 30.3573C14.3216 30.4791 14.3899 30.6014 14.4571 30.7232C15.6065 30.0898 16.7563 29.4563 17.9061 28.8229C17.8297 28.6848 17.7532 28.5467 17.6768 28.4086C16.5361 29.0583 15.3944 29.7076 14.2538 30.3573ZM47.9844 30.3335C48.0144 30.4456 48.0445 30.5577 48.0746 30.6699C49.4752 30.2907 50.8753 29.9121 52.2759 29.5329C52.2458 29.4223 52.2162 29.3122 52.1867 29.2017C50.7861 29.5793 49.3855 29.9564 47.9844 30.3335ZM78.1082 1.35156C77.8503 1.56968 77.5924 1.7883 77.1938 2.12567H78.4716C79.3809 3.79262 78.806 5.01213 77.5613 6.08436C76.4767 7.01849 75.4727 8.08256 73.8672 8.03211C73.7015 8.02702 73.4253 8.09479 73.3794 8.20436C72.7693 9.65473 71.7005 9.59408 70.5461 9.07275C70.4794 9.76022 70.567 10.4599 70.3163 11.0042C70.0466 11.5902 69.4773 12.0479 69.0089 12.5325C66.299 15.3344 65.2419 18.9593 63.8831 22.4716C62.6334 25.701 60.8913 28.6904 57.7925 30.58C57.3873 30.8267 56.8608 30.8751 56.0912 31.1044C55.5917 31.9203 54.8552 32.9299 53.2701 33.0792C52.3481 33.1663 51.499 33.972 50.5734 34.0816C48.025 34.3828 45.4246 34.8053 42.8992 34.5775C40.5572 34.366 38.226 33.5363 35.9956 32.6975C31.1445 30.8736 26.1848 30.5948 21.2114 31.6844C18.4494 32.2898 15.8888 33.6067 14.0091 35.932C13.4403 36.6358 12.6636 37.1673 12.0117 37.8079C8.83693 40.9268 6.33646 44.5129 4.58266 48.6097C4.04189 49.8741 3.5266 51.1497 2.98788 52.4155C2.73355 53.0108 2.44456 53.3063 1.73509 52.8283C-0.0110662 51.6516 -0.275079 50.8821 0.224405 48.7157C2.22897 40.0171 7.51075 33.6877 14.6865 28.7689C17.8659 26.5892 21.5952 26.1449 25.3133 26.2483C27.8214 26.3186 30.3433 26.7962 32.805 27.3369C35.1006 27.8409 37.3126 28.7113 39.5822 29.3447C42.3406 30.1143 45.0939 29.6026 47.8303 29.1399C54.7329 27.9723 59.004 23.8745 61.1095 17.2883C63.4438 9.98496 68.1343 4.70127 75.0894 1.47693C75.9513 1.0779 76.9772 1.03458 77.9273 0.82666C77.9879 1.00146 78.0481 1.17626 78.1082 1.35156Z" fill="#595984"/>
<path fill-rule="evenodd" clip-rule="evenodd" d="M90.5446 32.1074C90.0101 32.6897 89.467 33.2644 88.9447 33.8568C88.7203 34.1112 88.3107 34.5701 88.3706 34.6505C89.1848 35.7442 88.329 36.6568 87.7372 37.0747C86.219 38.1477 86.7159 39.6709 86.5058 41.0246C86.3804 41.8295 85.3719 43.0912 84.6318 43.2298C84.5714 42.8625 84.5125 42.5038 84.4542 42.1452C84.1293 42.304 83.7471 42.4011 83.4923 42.6354C83.0538 43.0391 82.6939 43.5282 82.1838 44.1161C82.7152 44.2198 83.0781 44.2906 83.4598 44.3645C83.5334 44.8263 83.6045 45.271 83.675 45.7106C82.2868 46.2221 80.8884 46.4679 79.8251 47.6562C79.2469 48.3028 78.4465 48.6053 78.9038 49.6727C78.9429 49.7632 78.3902 50.2737 78.3003 50.2271C76.1365 49.1061 74.9605 51.1033 74.3021 52.149C73.759 53.0105 73.1256 53.4724 72.4261 53.8012C71.8896 54.0531 71.077 53.7096 70.3847 53.653C70.2121 53.6388 70.0329 53.7091 69.7659 53.7562C69.7974 54.1674 69.8258 54.5398 69.8527 54.903C68.6132 55.4286 68.6132 55.4286 65.7997 54.6501C65.55 56.2001 64.2882 56.7222 62.6548 55.8789C62.5624 56.1874 62.4751 56.4809 62.4629 56.5213C60.7742 56.4844 59.0084 54.7907 57.5552 57.2726C56.2766 55.8662 54.9503 56.4697 53.4997 57.2058C52.8195 57.5503 51.8998 57.4967 51.0882 57.5022C47.7737 57.5245 44.5145 57.7451 41.2904 58.7042C39.7109 59.1742 38.3724 60.1313 36.8826 60.5659C33.6651 61.5048 32.1891 64.3504 29.9334 66.3117C28.8751 67.2319 28.3361 68.7384 27.5366 69.9631C27.0489 70.7098 26.8392 71.8885 25.4236 71.1899C24.3278 70.6496 23.9146 69.9581 24.4222 68.6311C26.7809 62.467 30.5953 57.6783 36.8821 54.9824C41.6158 52.9538 46.5479 52.9275 51.5206 52.793C54.7346 52.706 57.944 52.4798 61.1574 52.3362C61.6544 52.3144 62.5015 51.8642 62.2761 53.0383L62.2817 53.0156L61.6605 53.2508C61.6554 53.3231 61.6508 53.3955 61.6457 53.4678C61.9569 53.4961 62.2751 53.5781 62.5766 53.5386C62.9314 53.4926 63.2756 53.2381 63.6182 53.2508C66.3855 53.3515 68.7173 52.0154 71.0334 50.8524C73.4941 49.6165 75.7893 48.0417 78.1054 46.5367C78.8109 46.0789 79.3479 45.3631 79.9621 44.7651L79.9215 44.799C80.3758 44.4398 80.8291 44.0802 81.5696 43.4938C80.7331 43.4417 80.3083 43.4154 79.6363 43.3739C80.5458 42.2691 81.3036 41.2194 82.201 40.3053C82.7954 39.6992 83.2055 39.9638 83.6288 41.0403C84.3065 40.9933 84.9592 40.9482 85.7414 40.8936C85.3658 40.3882 85.049 39.9613 84.8252 39.6613C84.2313 39.6127 83.4953 39.7265 83.3745 39.5055C83.1517 39.0987 83.206 38.4795 83.2984 37.9767C83.4289 37.2674 83.6481 36.5617 83.9293 35.8965C84.0984 35.4969 84.4567 35.1771 84.8653 34.6455C84.5988 33.5482 85.0607 32.4186 87.0159 29.9119C87.2829 30.0439 87.5646 30.1826 87.9128 30.3546C87.7382 28.6573 87.9118 28.3841 88.7462 28.4535V30.1922L88.7178 30.1532C89.0102 30.7502 89.302 31.3466 89.6274 32.0128C89.705 31.9916 89.9933 31.9117 90.2821 31.8312C90.3694 31.9233 90.4573 32.0154 90.5446 32.1074Z" fill="#595984"/>
<path fill-rule="evenodd" clip-rule="evenodd" d="M91.0495 31.0644C90.9635 30.9734 90.877 30.8824 90.791 30.7914C90.973 28.8604 90.8925 28.7744 89.25 29.1329L89.278 29.1714C89.8735 28.6049 90.469 28.0379 91.138 27.4004C90.7165 27.1304 90.3135 26.8724 89.6975 26.4779C90.2235 26.1719 90.5995 25.9419 90.988 25.7349C91.1165 25.6664 91.339 25.7089 91.414 25.6159C94.3485 21.9994 98.241 19.8144 102.545 18.3334C104.536 17.6484 106.637 17.2839 108.692 16.7914C108.986 16.7209 109.304 16.7499 109.61 16.7329L109.739 17.1659C107.162 17.9229 104.583 18.6799 102.007 19.4369C102.04 19.5624 102.073 19.6879 102.106 19.8139C104.781 19.0749 107.457 18.3354 110.107 17.6034C111.038 19.6579 110.893 19.9104 108.979 20.7329C106.467 21.8129 103.995 22.9874 101.497 24.0994C101 24.3204 100.528 24.6704 99.933 24.0594C99.6905 23.8119 98.9825 24.0189 98.356 24.0189V23.0914C97.7615 23.4679 97.251 23.7909 96.433 24.3089C97.157 24.3954 97.511 24.4374 97.8515 24.4784C97.8515 24.6144 97.886 24.7214 97.847 24.7709C97.414 25.3184 96.766 25.5854 96.8215 26.6049C96.8595 27.3034 95.9365 27.2799 95.525 26.6224C95.1535 27.0344 94.78 27.4489 94.2215 28.0679C94.321 29.3454 93.399 30.0929 91.6805 29.5859C91.7445 30.0019 91.897 30.3864 91.8145 30.7104C91.771 30.8824 91.318 30.9499 91.0495 31.0644Z" fill="#595984"/>
<path fill-rule="evenodd" clip-rule="evenodd" d="M74 47.8326C72.0934 48.6902 70.1858 49.5472 68.2787 50.4048C68.1856 50.2762 68.0931 50.1476 68 50.019C68.2614 49.8497 68.5055 49.6555 68.7858 49.5149C70.1138 48.8493 71.4413 48.1823 72.7943 47.5551C73.0854 47.4205 73.4799 47.4506 73.8274 47.4048C73.8847 47.5472 73.9426 47.6902 74 47.8326Z" fill="#595984"/>
<path fill-rule="evenodd" clip-rule="evenodd" d="M62 52.4048C62.9157 50.6129 64.5931 50.9468 66 50.4048C65.9333 51.3725 64.7375 51.9301 62.0101 52.3708C62.0058 52.3797 62 52.4048 62 52.4048Z" fill="#595984"/>
<path fill-rule="evenodd" clip-rule="evenodd" d="M80 44.3006C79.4723 44.3787 78.9099 44.3841 78.4273 44.5555C77.9537 44.7237 77.5613 45.0607 77 45.4048C77.1311 44.3693 78.3455 43.262 79.1308 43.4199C79.4702 43.4877 79.6842 44.0135 79.9565 44.3311C79.958 44.3307 80 44.3006 80 44.3006Z" fill="#595984"/>
</svg>
