<svg width="242" height="138" viewBox="0 0 242 138" fill="none" xmlns="http://www.w3.org/2000/svg">
<g clip-path="url(#clip0_27_20684)">
<path fill-rule="evenodd" clip-rule="evenodd" d="M71.7904 7.38493C70.5604 7.26524 69.4132 7.51986 68.3294 8.10081C69.4727 7.82699 70.715 8.05734 71.7904 7.38493ZM240.609 12.6863H246.557V12.5581H240.609V12.6863ZM166.257 13.3356C166.257 13.2746 166.258 13.2125 166.258 13.1515H157.997C157.996 13.2125 157.994 13.2746 157.993 13.3356H166.257ZM203.567 16.2742C203.567 16.2995 203.569 16.3249 203.569 16.3504H212.511L212.508 16.2742H203.567ZM64.5851 128.382C63.4333 128.154 62.3467 128.008 61.3456 127.291C60.6182 126.768 59.6479 127.07 58.7912 128.178C60.9577 127.403 62.6058 129.586 64.5851 128.382ZM231.965 14.8881C236.953 14.2305 241.945 13.7742 246.978 13.9363C243.888 13.3632 234.91 13.9115 231.965 14.8881ZM238.707 7.56842C243.493 7.28613 248.16 8.17195 252.841 8.89687C248.241 7.14781 243.507 6.88077 238.707 7.56842ZM220.86 16.5367C212.722 17.5733 204.575 17.8415 196.408 16.9212C204.578 18.0762 212.734 18.3084 220.86 16.5367ZM15.068 32.3848C17.7454 30.0143 20.5387 27.804 23.4735 25.7743C26.378 23.7655 29.3212 21.8166 32.3045 19.9372C26.0058 23.3189 19.9057 26.9858 15.068 32.3848ZM210.837 10.9423C210.643 10.9293 210.449 10.9084 210.255 10.9062C203.457 10.8294 196.692 10.3659 189.981 9.22601C182.728 7.9941 175.439 7.09078 168.076 6.85084C159.966 6.58549 151.858 6.20271 143.747 5.98986C138.938 5.86452 134.125 5.96672 129.767 5.96672C138.166 6.57251 147.05 6.485 155.915 6.93158C163.765 7.32735 171.637 7.33073 179.445 8.39214C185.914 9.27174 192.376 10.2084 198.848 11.0609C202.834 11.5848 206.837 11.5391 210.837 10.9423ZM275.763 57.6604C275.763 52.324 275.972 46.9763 275.698 41.6541C275.474 37.3294 275.029 32.9156 272.379 29.2069C266.202 20.5599 257.61 15.9546 247.264 14.6511C241.081 13.8719 234.951 15.0147 228.856 16.0382C222.711 17.0702 216.555 18.0396 210.323 18.301C203.666 18.5799 197.053 17.9194 190.525 16.6705C176.156 13.9204 161.565 13.9227 147.05 13.1741C135.539 12.5807 124.017 12.177 112.546 11.036C103.548 10.1406 88.7766 10.8994 79.5005 12.6073C78.1728 12.8517 76.8416 13.0804 75.5151 13.3181C66.8533 14.8684 58.3652 17.0979 49.9243 19.5634C39.5014 22.6081 30.0363 27.5025 21.379 34.0379C19.2783 35.6238 17.4525 37.3401 16.855 40.1049C16.5424 41.553 15.751 42.9097 14.6452 43.9225C12.743 45.6654 11.3777 47.8775 9.58447 49.6761C6.10606 53.1659 5.31513 57.5481 5.31513 62.0991C5.31458 69.2551 7.74521 75.9239 10.5182 82.3442C13.2524 88.6753 17.6498 94.0089 22.5319 98.8574C28.8598 105.141 35.5642 110.943 43.6115 114.982C49.5572 117.967 55.451 121.053 61.8194 123.079C64.2309 123.847 66.6441 124.596 69.0709 125.315C81.4111 128.963 93.8998 132.101 106.088 136.278C117.618 140.229 129.215 143.979 141.047 146.944C147.455 148.549 153.939 149.724 160.468 150.706C169.161 152.012 177.875 153.032 186.681 152.906C198.698 152.735 210.685 152.251 222.357 148.93C228.571 147.162 234.571 144.889 240.045 141.371C247.057 136.864 251.612 130.175 255.758 123.202C260.754 114.795 265.333 106.15 269.477 97.2817C271.668 92.5919 273.602 87.8189 274.55 82.6734C276.079 74.3848 276.019 66.0291 275.763 57.6604ZM67.9207 134.273C66.2944 133.871 66.2681 132.36 65.8527 131.161C65.6924 130.699 65.964 130.193 66.3849 129.819C66.7003 129.539 67.0882 129.31 66.9584 128.703C66.6677 127.341 67.4019 127.461 68.3542 127.756C70.0861 128.295 71.846 128.742 73.66 129.01C73.3947 128.892 73.1406 128.723 72.8629 128.664C70.4323 128.154 68.2889 126.899 65.9971 126.033C63.1893 124.971 60.2185 124.312 57.4786 123.11C52.1188 120.757 46.4633 119.08 41.4199 115.972C40.4289 115.362 39.4091 114.536 37.8717 114.313C38.8993 115.471 40.064 116.003 41.1276 116.595C45.696 119.142 50.4381 121.325 55.2313 123.421C58.4147 124.813 61.6772 125.916 64.9583 127.004C65.2961 127.114 65.6385 127.219 65.9781 127.326C66.7397 127.568 66.5334 128.169 66.5126 128.722C66.4805 129.596 65.9274 128.918 65.6418 129.005C65.3175 129.105 64.9408 129.029 64.5631 129.029C64.6013 129.563 65.1112 129.404 65.3412 129.644C65.8048 130.125 65.5328 130.551 65.3748 131.021C65.1421 131.715 64.6795 131.416 64.2494 131.327C63.3012 131.13 62.7683 129.773 61.4079 130.487C61.0229 130.689 60.115 129.826 59.6873 129.211C59.4276 128.838 59.2185 128.429 58.7794 128.694C57.3128 129.579 56.0553 128.381 55.0891 127.906C53.6837 127.215 52.1728 127.311 50.8417 126.661L50.8889 126.686C50.084 125.584 48.8293 125.322 47.6623 124.9C47.2183 125.4 48.1181 125.546 47.855 126.011C47.3615 126.224 46.9337 125.883 46.4868 125.717C45.8752 125.489 45.4508 125.138 44.5959 125.524C43.7864 125.889 42.7802 124.987 42.1467 124.32C40.9235 123.033 39.8358 121.876 37.7621 122.049C36.9347 122.118 35.9987 121.153 35.1471 120.604C30.2926 117.477 25.7905 113.866 21.6769 109.837C17.5723 105.817 13.6521 101.635 10.5333 96.681C8.75422 93.8559 6.7806 91.1701 5.53099 88.0566C2.2791 79.9498 -0.22854 71.6737 0.0165475 62.7896C0.172818 57.1443 1.35103 51.7475 3.77716 46.6416C3.97334 46.2283 4.20213 45.8031 4.51243 45.4752C7.57488 42.2407 9.58842 38.349 11.6194 34.4338C14.1877 29.4824 18.7274 26.4761 23.0665 23.3043C32.3859 16.4921 43.0416 12.6784 53.9569 9.48346C65.543 6.09205 77.3476 3.81738 89.3608 2.57983C98.1923 1.6703 106.976 1.94863 115.791 2.85026C125.044 3.79649 134.358 3.62034 143.645 3.9461C155.839 4.37292 168.071 4.19395 180.208 5.75218C186.026 6.49968 191.824 7.3917 197.629 8.23067C205.599 9.3824 213.505 8.67838 221.395 7.42219C228.454 6.29869 235.522 4.87596 242.687 5.18534C257.756 5.8363 269.404 12.2956 277.414 25.5542C280.844 31.2337 281.457 37.1792 281.684 43.3574C281.957 50.8409 282.086 58.3345 281.937 65.8275C281.678 78.9161 278.469 91.2114 272.621 102.929C267.746 112.697 262.648 122.323 256.819 131.543C251.949 139.247 246.269 146.224 238.298 150.946C232.946 154.116 227.17 156.237 221.191 157.922C217.518 158.958 213.795 159.673 210.053 160.254C206.546 160.797 202.981 160.973 199.439 161.296C197.365 161.483 195.3 161.777 193.2 161.602C191.698 161.476 190.135 161.991 188.746 161.892C187.233 161.784 185.698 161.826 184.181 161.73C182.817 161.643 181.381 161.539 180.105 161.569C178.506 161.604 176.93 161.019 175.228 161.473C173.881 161.833 172.296 160.851 170.755 161.066C169.623 161.224 168.548 160.509 167.507 160.703C166.472 160.897 165.71 160.931 165.043 160.035C164.918 159.869 164.497 159.727 164.347 159.811C162.807 160.695 161.498 159.343 160.056 159.405C158.456 159.473 156.947 158.928 155.386 158.725C151.155 158.172 147.063 156.854 142.856 156.24C139.82 155.797 136.853 154.993 133.917 154.285C131.475 153.694 128.899 153.123 126.549 152.034C125.648 151.813 124.746 151.593 123.845 151.373C121.735 150.698 119.623 150.023 117.512 149.348C116.614 149.124 115.782 148.585 114.797 148.769C114.507 148.28 114 148.19 113.514 148.03C107.996 146.219 102.484 144.394 96.9691 142.574C89.9127 140.546 82.8694 138.474 75.7944 136.515C73.1636 135.786 70.638 134.687 67.9207 134.273Z" fill="#697DC3"/>
</g>
<defs>
<clipPath id="clip0_27_20684">
<rect width="282" height="161.143" fill="white" transform="translate(0 0.826172)"/>
</clipPath>
</defs>
</svg>
