<svg width="66" height="76" viewBox="0 0 66 76" fill="none" xmlns="http://www.w3.org/2000/svg">
<g clip-path="url(#clip0_27_20682)">
<path fill-rule="evenodd" clip-rule="evenodd" d="M31.6005 5.35583C28.1405 5.82283 22.4875 9.41583 21.7075 11.6218C24.9835 9.54583 28.1095 7.56683 31.6005 5.35583ZM38.7935 8.96683C37.8575 9.46183 36.9145 9.91483 36.0175 10.4438C32.9025 12.2828 29.5475 13.8348 26.7725 16.0958C24.1685 18.2178 22.1755 21.0918 19.9335 23.6528C18.8605 24.8778 17.6165 26.0188 16.8245 27.4118C13.0085 34.1168 9.35548 40.9858 8.86148 48.8418C8.60548 52.9198 9.22648 57.0938 9.86048 61.1608C10.0385 62.3088 11.4715 63.7108 12.6525 64.1798C19.4645 66.8788 26.4965 67.4948 33.3205 64.4698C46.1095 58.7978 52.9575 48.2008 56.3605 35.1458C57.9665 28.9868 57.6575 22.9878 52.1455 18.4778C51.0935 17.6168 49.9565 16.8538 48.9395 15.9538C48.4355 15.5068 47.7145 14.8038 47.7765 14.3008C48.1745 11.0898 46.4945 9.95383 43.6535 9.82283C42.4825 9.76883 41.2995 9.83183 40.1445 9.67883C39.6075 9.60783 39.1215 9.14883 38.7935 8.96683ZM65.7225 34.3948C65.2825 41.3668 63.4815 47.9198 59.6705 53.8748C58.0325 56.4338 56.6445 59.1548 54.9505 61.6718C54.2235 62.7518 52.9475 63.4428 52.0215 64.4078C47.2715 69.3558 41.9235 73.3308 34.9895 74.5438C25.5205 76.2018 16.5975 74.9298 8.61147 69.1878C2.35747 64.6898 -0.166525 58.0068 0.00847533 50.8938C0.417475 34.2868 7.29247 20.4498 20.1195 9.76783C22.6625 7.64883 25.4565 5.72183 28.3925 4.20183C35.7385 0.39583 42.9975 1.22783 49.8465 5.57483C54.4575 8.50283 58.0455 12.4208 60.1705 17.5718C60.7545 18.9888 61.6025 20.2988 62.3575 21.6438C64.5765 25.5988 66.0105 29.7558 65.7225 34.3948Z" fill="#9DB5FC"/>
</g>
<defs>
<clipPath id="clip0_27_20682">
<rect width="66" height="75" fill="white" transform="translate(0 0.826172)"/>
</clipPath>
</defs>
</svg>
