<svg width="61" height="54" viewBox="0 0 61 54" fill="none" xmlns="http://www.w3.org/2000/svg">
<path fill-rule="evenodd" clip-rule="evenodd" d="M30.2318 48.0108C27.4573 46.5368 24.9972 45.1387 22.6596 43.5353C24.0637 45.2561 27.9684 47.5879 30.2318 48.0108M25.1964 12.5614C36.2639 18.2741 47.2366 24.1607 57.9501 30.5183C47.5355 23.6168 36.4415 17.9513 25.1964 12.5614M4.33188 5.72955C4.06731 6.2223 4.14125 6.71829 4.2252 7.18785C4.49535 8.70245 4.71538 10.2333 5.11198 11.7156C6.39156 16.4989 8.0133 21.1611 10.3464 25.5477C12.9155 30.3781 15.8777 34.958 19.6481 38.9336C23.2869 42.7705 27.5139 45.7961 32.7016 47.2378C33.7379 47.5258 34.8038 47.7309 35.908 47.6077C38.7451 47.2912 41.0073 45.7997 43.2303 44.1649C47.3596 41.128 51.0083 37.5517 54.7378 34.0642C55.0977 33.7276 55.3585 33.4567 54.7621 33.0252C52.6968 31.53 50.3317 30.4725 48.4169 28.7754C47.5604 28.016 46.5306 27.8329 45.5462 27.4455C44.2866 26.9499 43.4699 25.8014 42.241 25.1858C41.0214 24.575 39.8955 23.7469 38.6919 23.0669C38.3184 22.8557 37.8387 23.1926 37.634 22.7519C37.1642 21.7419 36.1992 21.6741 35.3032 21.5053C34.8404 21.418 34.3929 21.3237 34.1913 20.8765C34.032 20.5227 33.7025 20.4521 33.4617 20.2425C32.3122 19.2449 30.7792 19.2234 29.4728 18.6112C26.9408 17.424 24.683 15.7605 22.0646 14.6951C20.0869 13.8903 18.1463 12.8875 16.3215 11.674C14.7079 10.6005 12.6972 10.112 11.1178 9.00109C9.01826 7.52484 6.47084 7.12559 4.33188 5.72955M17.2764 8.80755C18.1602 9.61203 19.2843 9.90073 20.379 10.2688C19.8093 9.81047 19.128 9.5219 18.5794 9.07167C18.1357 8.70782 17.7529 8.65308 17.2692 8.83957C16.1855 7.91988 14.9161 7.37778 13.5592 7.01597C14.7193 7.77596 15.9172 8.4599 17.2764 8.80755M43.4046 49.6415C41.8397 50.7271 40.306 51.845 38.5369 52.6115C37.7344 52.96 36.895 53.1159 36.0724 53.3301C33.3483 54.0405 30.7352 53.5386 28.2475 52.3481C26.894 51.7 25.5931 50.9389 24.2889 50.1928C23.9248 49.9842 23.3974 49.8457 23.4825 49.2213C23.493 49.1434 23.3943 48.9956 23.3154 48.9683C21.2851 48.2693 19.679 47.0828 17.7606 45.1473C15.3002 42.6663 13.2502 39.8587 11.2684 37.015C9.51879 34.5048 8.06865 31.8021 6.70637 29.0408C4.93088 25.4426 3.62759 21.6747 2.5617 17.8548C1.71168 14.8087 1.0231 11.6978 0.965322 8.43272C0.919757 5.85946 1.25194 3.62545 2.84608 1.62195C3.69567 0.554644 4.72214 0.343511 5.49949 1.384C6.88627 3.24163 8.90897 3.86348 10.8595 4.72897C18.9651 8.32497 26.9956 12.0788 34.8664 16.1729C42.7345 20.2652 50.5477 24.4503 58.103 29.1021C58.6469 29.437 59.2053 29.7601 59.7025 30.1566C60.2638 30.6041 60.8645 31.0814 60.2161 31.9287C59.8815 32.366 60.3189 32.8642 60.1129 33.4213C59.5963 34.8218 58.7041 35.8987 57.6678 36.8855C54.1609 40.2267 50.7714 43.6948 47.0562 46.8116C45.8775 47.8006 44.6238 48.7007 43.4046 49.6415" fill="#1C1C57"/>
</svg>
